<?xml version="1.0" encoding="UTF-8"?>
<!DOCTYPE svg PUBLIC "-//W3C//DTD SVG 1.1//EN" "http://www.w3.org/Graphics/SVG/1.1/DTD/svg11.dtd">
<svg version="1.1" xmlns="http://www.w3.org/2000/svg" xmlns:xlink="http://www.w3.org/1999/xlink" x="0" y="0" width="817.529" height="1100" viewBox="0, 0, 817.529, 1100">
  <defs>
    <radialGradient id="Gradient_1" gradientUnits="userSpaceOnUse" cx="405.5" cy="386.5" r="294.403">
      <stop offset="0" stop-color="#FADB71"/>
      <stop offset="0.465" stop-color="#B9AA8B"/>
      <stop offset="0.665" stop-color="#A79C92"/>
      <stop offset="0.808" stop-color="#9A9397"/>
      <stop offset="0.927" stop-color="#7D7CA3"/>
      <stop offset="1" stop-color="#686DAB"/>
    </radialGradient>
    <linearGradient id="Gradient_2" gradientUnits="userSpaceOnUse" x1="405" y1="676" x2="405" y2="1026">
      <stop offset="0" stop-color="#895B1A"/>
      <stop offset="1" stop-color="#4A310C"/>
    </linearGradient>
    <linearGradient id="Gradient_3" gradientUnits="userSpaceOnUse" x1="430.399" y1="578.213" x2="430.399" y2="678.638">
      <stop offset="0" stop-color="#C89F48"/>
      <stop offset="1" stop-color="#895B1A"/>
    </linearGradient>
  </defs>
  <g id="border" transform="translate(17.529, -10)">
    <g>
      <path d="M45.5,15.5 L765.5,15.5 C782.069,15.5 795.5,28.931 795.5,45.5 L795.5,1075.5 C795.5,1092.068 782.069,1105.5 765.5,1105.5 L45.5,1105.5 C28.931,1105.5 15.5,1092.068 15.5,1075.5 L15.5,45.5 C15.5,28.931 28.931,15.5 45.5,15.5 z" fill="#B18537"/>
      <path d="M45.5,15.5 L765.5,15.5 C782.069,15.5 795.5,28.931 795.5,45.5 L795.5,1075.5 C795.5,1092.068 782.069,1105.5 765.5,1105.5 L45.5,1105.5 C28.931,1105.5 15.5,1092.068 15.5,1075.5 L15.5,45.5 C15.5,28.931 28.931,15.5 45.5,15.5 z" fill-opacity="0" stroke="#000000" stroke-width="3"/>
    </g>
    <g>
      <path d="M77.808,50.5 L733.192,50.5 C748.274,50.5 760.5,63.069 760.5,78.573 L760.5,1042.427 C760.5,1057.931 748.274,1070.5 733.192,1070.5 L77.808,1070.5 C62.726,1070.5 50.5,1057.931 50.5,1042.427 L50.5,78.573 C50.5,63.069 62.726,50.5 77.808,50.5 z" fill="#FADB72"/>
      <path d="M77.808,50.5 L733.192,50.5 C748.274,50.5 760.5,63.069 760.5,78.573 L760.5,1042.427 C760.5,1057.931 748.274,1070.5 733.192,1070.5 L77.808,1070.5 C62.726,1070.5 50.5,1057.931 50.5,1042.427 L50.5,78.573 C50.5,63.069 62.726,50.5 77.808,50.5 z" fill-opacity="0" stroke="#000000" stroke-width="3"/>
    </g>
    <g>
      <path d="M-12.03,655.5 L-10.559,655.5" fill="#FFFFFF"/>
      <path d="M-12.03,655.5 L-10.559,655.5" fill-opacity="0" stroke="#000000" stroke-width="3"/>
    </g>
    <g>
      <path d="M689.102,96.5 C702.154,96.5 712.735,107.96 712.735,122.096 L712.735,676.5 L98.265,676.5 L98.265,122.096 C98.265,107.96 108.846,96.5 121.898,96.5 L689.102,96.5 z" fill="url(#Gradient_1)"/>
      <path d="M689.102,96.5 C702.154,96.5 712.735,107.96 712.735,122.096 L712.735,676.5 L98.265,676.5 L98.265,122.096 C98.265,107.96 108.846,96.5 121.898,96.5 L689.102,96.5 z" fill-opacity="0" stroke="#000000" stroke-width="0.25"/>
    </g>
    <path d="M712.235,676 L712.235,1000.404 C712.235,1014.54 701.654,1026 688.602,1026 L121.398,1026 C108.346,1026 97.765,1014.54 97.765,1000.404 L97.765,676 L712.235,676 z" fill="url(#Gradient_2)"/>
    <path d="M195,676.425 L280,563.213 L365,450 L450,563.213 L535,676.425 L365,676.425 z" fill="#FF852A"/>
    <path d="M280.048,676.425 L353.786,578.213 L427.524,480 L501.262,578.213 L575,676.425 L427.524,676.425 z" fill="#FADB71"/>
    <path d="M355,678.638 L392.7,628.425 L430.399,578.213 L468.099,628.425 L505.798,678.638 L430.399,678.638 z" fill="url(#Gradient_3)"/>
    <g>
      <g>
        <g>
          <path d="M50.5,117.498 L98.265,117.498 L98.265,129.012 L50.5,129.012 L50.5,117.498 z" fill="#000000"/>
          <path d="M50.5,117.498 L98.265,117.498 L98.265,129.012 L50.5,129.012 L50.5,117.498 z" fill-opacity="0" stroke="#000000" stroke-width="0.25"/>
        </g>
        <g>
          <path d="M50.5,139.451 L98.265,139.451 L98.265,150.966 L50.5,150.966 L50.5,139.451 z" fill="#000000"/>
          <path d="M50.5,139.451 L98.265,139.451 L98.265,150.966 L50.5,150.966 L50.5,139.451 z" fill-opacity="0" stroke="#000000" stroke-width="0.25"/>
        </g>
        <g>
          <path d="M50.5,161.405 L98.265,161.405 L98.265,228.575 L50.5,228.575 L50.5,161.405 z" fill="#000000"/>
          <path d="M50.5,161.405 L98.265,161.405 L98.265,228.575 L50.5,228.575 L50.5,161.405 z" fill-opacity="0" stroke="#000000" stroke-width="0.25"/>
        </g>
        <g>
          <path d="M50.5,239.014 L98.265,239.014 L98.265,250.528 L50.5,250.528 L50.5,239.014 z" fill="#000000"/>
          <path d="M50.5,239.014 L98.265,239.014 L98.265,250.528 L50.5,250.528 L50.5,239.014 z" fill-opacity="0" stroke="#000000" stroke-width="0.25"/>
        </g>
        <g>
          <path d="M50.5,260.967 L98.265,260.967 L98.265,272.482 L50.5,272.482 L50.5,260.967 z" fill="#000000"/>
          <path d="M50.5,260.967 L98.265,260.967 L98.265,272.482 L50.5,272.482 L50.5,260.967 z" fill-opacity="0" stroke="#000000" stroke-width="0.25"/>
        </g>
        <g>
          <path d="M50.5,282.921 L98.265,282.921 L98.265,350.091 L50.5,350.091 L50.5,282.921 z" fill="#000000"/>
          <path d="M50.5,282.921 L98.265,282.921 L98.265,350.091 L50.5,350.091 L50.5,282.921 z" fill-opacity="0" stroke="#000000" stroke-width="0.25"/>
        </g>
        <g>
          <path d="M50.5,360.53 L98.265,360.53 L98.265,372.044 L50.5,372.044 L50.5,360.53 z" fill="#000000"/>
          <path d="M50.5,360.53 L98.265,360.53 L98.265,372.044 L50.5,372.044 L50.5,360.53 z" fill-opacity="0" stroke="#000000" stroke-width="0.25"/>
        </g>
        <g>
          <path d="M50.5,382.483 L98.265,382.483 L98.265,393.998 L50.5,393.998 L50.5,382.483 z" fill="#000000"/>
          <path d="M50.5,382.483 L98.265,382.483 L98.265,393.998 L50.5,393.998 L50.5,382.483 z" fill-opacity="0" stroke="#000000" stroke-width="0.25"/>
        </g>
        <g>
          <path d="M50.5,404.437 L98.265,404.437 L98.265,471.607 L50.5,471.607 L50.5,404.437 z" fill="#000000"/>
          <path d="M50.5,404.437 L98.265,404.437 L98.265,471.607 L50.5,471.607 L50.5,404.437 z" fill-opacity="0" stroke="#000000" stroke-width="0.25"/>
        </g>
        <g>
          <path d="M50.5,482.046 L98.265,482.046 L98.265,493.561 L50.5,493.561 L50.5,482.046 z" fill="#000000"/>
          <path d="M50.5,482.046 L98.265,482.046 L98.265,493.561 L50.5,493.561 L50.5,482.046 z" fill-opacity="0" stroke="#000000" stroke-width="0.25"/>
        </g>
        <g>
          <path d="M50.5,503.999 L98.265,503.999 L98.265,515.514 L50.5,515.514 L50.5,503.999 z" fill="#000000"/>
          <path d="M50.5,503.999 L98.265,503.999 L98.265,515.514 L50.5,515.514 L50.5,503.999 z" fill-opacity="0" stroke="#000000" stroke-width="0.25"/>
        </g>
        <g>
          <path d="M50.5,525.953 L98.265,525.953 L98.265,593.123 L50.5,593.123 L50.5,525.953 z" fill="#000000"/>
          <path d="M50.5,525.953 L98.265,525.953 L98.265,593.123 L50.5,593.123 L50.5,525.953 z" fill-opacity="0" stroke="#000000" stroke-width="0.25"/>
        </g>
      </g>
      <g>
        <g>
          <path d="M98.265,1003.502 L50.5,1003.502 L50.5,991.988 L98.265,991.988 L98.265,1003.502 z" fill="#000000"/>
          <path d="M98.265,1003.502 L50.5,1003.502 L50.5,991.988 L98.265,991.988 L98.265,1003.502 z" fill-opacity="0" stroke="#000000" stroke-width="0.25"/>
        </g>
        <g>
          <path d="M98.265,981.549 L50.5,981.549 L50.5,970.034 L98.265,970.034 L98.265,981.549 z" fill="#000000"/>
          <path d="M98.265,981.549 L50.5,981.549 L50.5,970.034 L98.265,970.034 L98.265,981.549 z" fill-opacity="0" stroke="#000000" stroke-width="0.25"/>
        </g>
        <g>
          <path d="M98.265,959.595 L50.5,959.595 L50.5,892.425 L98.265,892.425 L98.265,959.595 z" fill="#000000"/>
          <path d="M98.265,959.595 L50.5,959.595 L50.5,892.425 L98.265,892.425 L98.265,959.595 z" fill-opacity="0" stroke="#000000" stroke-width="0.25"/>
        </g>
        <g>
          <path d="M98.265,881.986 L50.5,881.986 L50.5,870.472 L98.265,870.472 L98.265,881.986 z" fill="#000000"/>
          <path d="M98.265,881.986 L50.5,881.986 L50.5,870.472 L98.265,870.472 L98.265,881.986 z" fill-opacity="0" stroke="#000000" stroke-width="0.25"/>
        </g>
        <g>
          <path d="M98.265,860.033 L50.5,860.033 L50.5,848.518 L98.265,848.518 L98.265,860.033 z" fill="#000000"/>
          <path d="M98.265,860.033 L50.5,860.033 L50.5,848.518 L98.265,848.518 L98.265,860.033 z" fill-opacity="0" stroke="#000000" stroke-width="0.25"/>
        </g>
        <g>
          <path d="M98.265,838.079 L50.5,838.079 L50.5,770.909 L98.265,770.909 L98.265,838.079 z" fill="#000000"/>
          <path d="M98.265,838.079 L50.5,838.079 L50.5,770.909 L98.265,770.909 L98.265,838.079 z" fill-opacity="0" stroke="#000000" stroke-width="0.25"/>
        </g>
        <g>
          <path d="M98.265,760.47 L50.5,760.47 L50.5,748.955 L98.265,748.955 L98.265,760.47 z" fill="#000000"/>
          <path d="M98.265,760.47 L50.5,760.47 L50.5,748.955 L98.265,748.955 L98.265,760.47 z" fill-opacity="0" stroke="#000000" stroke-width="0.25"/>
        </g>
        <g>
          <path d="M98.265,738.517 L50.5,738.517 L50.5,727.002 L98.265,727.002 L98.265,738.517 z" fill="#000000"/>
          <path d="M98.265,738.517 L50.5,738.517 L50.5,727.002 L98.265,727.002 L98.265,738.517 z" fill-opacity="0" stroke="#000000" stroke-width="0.25"/>
        </g>
        <g>
          <path d="M98.265,716.563 L50.5,716.563 L50.5,649.393 L98.265,649.393 L98.265,716.563 z" fill="#000000"/>
          <path d="M98.265,716.563 L50.5,716.563 L50.5,649.393 L98.265,649.393 L98.265,716.563 z" fill-opacity="0" stroke="#000000" stroke-width="0.25"/>
        </g>
        <g>
          <path d="M98.265,638.954 L50.5,638.954 L50.5,627.439 L98.265,627.439 L98.265,638.954 z" fill="#000000"/>
          <path d="M98.265,638.954 L50.5,638.954 L50.5,627.439 L98.265,627.439 L98.265,638.954 z" fill-opacity="0" stroke="#000000" stroke-width="0.25"/>
        </g>
        <g>
          <path d="M98.265,617 L50.5,617 L50.5,605.486 L98.265,605.486 L98.265,617 z" fill="#000000"/>
          <path d="M98.265,617 L50.5,617 L50.5,605.486 L98.265,605.486 L98.265,617 z" fill-opacity="0" stroke="#000000" stroke-width="0.25"/>
        </g>
        <g>
          <path d="M98.265,595.047 L50.5,595.047 L50.5,527.877 L98.265,527.877 L98.265,595.047 z" fill="#000000"/>
          <path d="M98.265,595.047 L50.5,595.047 L50.5,527.877 L98.265,527.877 L98.265,595.047 z" fill-opacity="0" stroke="#000000" stroke-width="0.25"/>
        </g>
      </g>
    </g>
    <g>
      <g>
        <g>
          <path d="M712.735,117.498 L760.5,117.498 L760.5,129.012 L712.735,129.012 L712.735,117.498 z" fill="#000000"/>
          <path d="M712.735,117.498 L760.5,117.498 L760.5,129.012 L712.735,129.012 L712.735,117.498 z" fill-opacity="0" stroke="#000000" stroke-width="0.25"/>
        </g>
        <g>
          <path d="M712.735,139.451 L760.5,139.451 L760.5,150.966 L712.735,150.966 L712.735,139.451 z" fill="#000000"/>
          <path d="M712.735,139.451 L760.5,139.451 L760.5,150.966 L712.735,150.966 L712.735,139.451 z" fill-opacity="0" stroke="#000000" stroke-width="0.25"/>
        </g>
        <g>
          <path d="M712.735,161.405 L760.5,161.405 L760.5,228.575 L712.735,228.575 L712.735,161.405 z" fill="#000000"/>
          <path d="M712.735,161.405 L760.5,161.405 L760.5,228.575 L712.735,228.575 L712.735,161.405 z" fill-opacity="0" stroke="#000000" stroke-width="0.25"/>
        </g>
        <g>
          <path d="M712.735,239.014 L760.5,239.014 L760.5,250.528 L712.735,250.528 L712.735,239.014 z" fill="#000000"/>
          <path d="M712.735,239.014 L760.5,239.014 L760.5,250.528 L712.735,250.528 L712.735,239.014 z" fill-opacity="0" stroke="#000000" stroke-width="0.25"/>
        </g>
        <g>
          <path d="M712.735,260.967 L760.5,260.967 L760.5,272.482 L712.735,272.482 L712.735,260.967 z" fill="#000000"/>
          <path d="M712.735,260.967 L760.5,260.967 L760.5,272.482 L712.735,272.482 L712.735,260.967 z" fill-opacity="0" stroke="#000000" stroke-width="0.25"/>
        </g>
        <g>
          <path d="M712.735,282.921 L760.5,282.921 L760.5,350.091 L712.735,350.091 L712.735,282.921 z" fill="#000000"/>
          <path d="M712.735,282.921 L760.5,282.921 L760.5,350.091 L712.735,350.091 L712.735,282.921 z" fill-opacity="0" stroke="#000000" stroke-width="0.25"/>
        </g>
        <g>
          <path d="M712.735,360.53 L760.5,360.53 L760.5,372.044 L712.735,372.044 L712.735,360.53 z" fill="#000000"/>
          <path d="M712.735,360.53 L760.5,360.53 L760.5,372.044 L712.735,372.044 L712.735,360.53 z" fill-opacity="0" stroke="#000000" stroke-width="0.25"/>
        </g>
        <g>
          <path d="M712.735,382.483 L760.5,382.483 L760.5,393.998 L712.735,393.998 L712.735,382.483 z" fill="#000000"/>
          <path d="M712.735,382.483 L760.5,382.483 L760.5,393.998 L712.735,393.998 L712.735,382.483 z" fill-opacity="0" stroke="#000000" stroke-width="0.25"/>
        </g>
        <g>
          <path d="M712.735,404.437 L760.5,404.437 L760.5,471.607 L712.735,471.607 L712.735,404.437 z" fill="#000000"/>
          <path d="M712.735,404.437 L760.5,404.437 L760.5,471.607 L712.735,471.607 L712.735,404.437 z" fill-opacity="0" stroke="#000000" stroke-width="0.25"/>
        </g>
        <g>
          <path d="M712.735,482.046 L760.5,482.046 L760.5,493.561 L712.735,493.561 L712.735,482.046 z" fill="#000000"/>
          <path d="M712.735,482.046 L760.5,482.046 L760.5,493.561 L712.735,493.561 L712.735,482.046 z" fill-opacity="0" stroke="#000000" stroke-width="0.25"/>
        </g>
        <g>
          <path d="M712.735,503.999 L760.5,503.999 L760.5,515.514 L712.735,515.514 L712.735,503.999 z" fill="#000000"/>
          <path d="M712.735,503.999 L760.5,503.999 L760.5,515.514 L712.735,515.514 L712.735,503.999 z" fill-opacity="0" stroke="#000000" stroke-width="0.25"/>
        </g>
        <g>
          <path d="M712.735,525.953 L760.5,525.953 L760.5,593.123 L712.735,593.123 L712.735,525.953 z" fill="#000000"/>
          <path d="M712.735,525.953 L760.5,525.953 L760.5,593.123 L712.735,593.123 L712.735,525.953 z" fill-opacity="0" stroke="#000000" stroke-width="0.25"/>
        </g>
      </g>
      <g>
        <g>
          <path d="M760.5,1003.502 L712.735,1003.502 L712.735,991.988 L760.5,991.988 L760.5,1003.502 z" fill="#000000"/>
          <path d="M760.5,1003.502 L712.735,1003.502 L712.735,991.988 L760.5,991.988 L760.5,1003.502 z" fill-opacity="0" stroke="#000000" stroke-width="0.25"/>
        </g>
        <g>
          <path d="M760.5,981.549 L712.735,981.549 L712.735,970.034 L760.5,970.034 L760.5,981.549 z" fill="#000000"/>
          <path d="M760.5,981.549 L712.735,981.549 L712.735,970.034 L760.5,970.034 L760.5,981.549 z" fill-opacity="0" stroke="#000000" stroke-width="0.25"/>
        </g>
        <g>
          <path d="M760.5,959.595 L712.735,959.595 L712.735,892.425 L760.5,892.425 L760.5,959.595 z" fill="#000000"/>
          <path d="M760.5,959.595 L712.735,959.595 L712.735,892.425 L760.5,892.425 L760.5,959.595 z" fill-opacity="0" stroke="#000000" stroke-width="0.25"/>
        </g>
        <g>
          <path d="M760.5,881.986 L712.735,881.986 L712.735,870.472 L760.5,870.472 L760.5,881.986 z" fill="#000000"/>
          <path d="M760.5,881.986 L712.735,881.986 L712.735,870.472 L760.5,870.472 L760.5,881.986 z" fill-opacity="0" stroke="#000000" stroke-width="0.25"/>
        </g>
        <g>
          <path d="M760.5,860.033 L712.735,860.033 L712.735,848.518 L760.5,848.518 L760.5,860.033 z" fill="#000000"/>
          <path d="M760.5,860.033 L712.735,860.033 L712.735,848.518 L760.5,848.518 L760.5,860.033 z" fill-opacity="0" stroke="#000000" stroke-width="0.25"/>
        </g>
        <g>
          <path d="M760.5,838.079 L712.735,838.079 L712.735,770.909 L760.5,770.909 L760.5,838.079 z" fill="#000000"/>
          <path d="M760.5,838.079 L712.735,838.079 L712.735,770.909 L760.5,770.909 L760.5,838.079 z" fill-opacity="0" stroke="#000000" stroke-width="0.25"/>
        </g>
        <g>
          <path d="M760.5,760.47 L712.735,760.47 L712.735,748.955 L760.5,748.955 L760.5,760.47 z" fill="#000000"/>
          <path d="M760.5,760.47 L712.735,760.47 L712.735,748.955 L760.5,748.955 L760.5,760.47 z" fill-opacity="0" stroke="#000000" stroke-width="0.25"/>
        </g>
        <g>
          <path d="M760.5,738.517 L712.735,738.517 L712.735,727.002 L760.5,727.002 L760.5,738.517 z" fill="#000000"/>
          <path d="M760.5,738.517 L712.735,738.517 L712.735,727.002 L760.5,727.002 L760.5,738.517 z" fill-opacity="0" stroke="#000000" stroke-width="0.25"/>
        </g>
        <g>
          <path d="M760.5,716.563 L712.735,716.563 L712.735,649.393 L760.5,649.393 L760.5,716.563 z" fill="#000000"/>
          <path d="M760.5,716.563 L712.735,716.563 L712.735,649.393 L760.5,649.393 L760.5,716.563 z" fill-opacity="0" stroke="#000000" stroke-width="0.25"/>
        </g>
        <g>
          <path d="M760.5,638.954 L712.735,638.954 L712.735,627.439 L760.5,627.439 L760.5,638.954 z" fill="#000000"/>
          <path d="M760.5,638.954 L712.735,638.954 L712.735,627.439 L760.5,627.439 L760.5,638.954 z" fill-opacity="0" stroke="#000000" stroke-width="0.25"/>
        </g>
        <g>
          <path d="M760.5,617 L712.735,617 L712.735,605.486 L760.5,605.486 L760.5,617 z" fill="#000000"/>
          <path d="M760.5,617 L712.735,617 L712.735,605.486 L760.5,605.486 L760.5,617 z" fill-opacity="0" stroke="#000000" stroke-width="0.25"/>
        </g>
        <g>
          <path d="M760.5,595.047 L712.735,595.047 L712.735,527.877 L760.5,527.877 L760.5,595.047 z" fill="#000000"/>
          <path d="M760.5,595.047 L712.735,595.047 L712.735,527.877 L760.5,527.877 L760.5,595.047 z" fill-opacity="0" stroke="#000000" stroke-width="0.25"/>
        </g>
      </g>
    </g>
    <g>
      <path d="M129.445,98.38 L129.445,50.615 L196.615,50.615 L196.615,98.38 L129.445,98.38 z" fill="#000000"/>
      <path d="M129.445,98.38 L129.445,50.615 L196.615,50.615 L196.615,98.38 L129.445,98.38 z" fill-opacity="0" stroke="#000000" stroke-width="0.25"/>
    </g>
    <g>
      <path d="M207.054,98.38 L207.054,50.615 L218.568,50.615 L218.568,98.38 L207.054,98.38 z" fill="#000000"/>
      <path d="M207.054,98.38 L207.054,50.615 L218.568,50.615 L218.568,98.38 L207.054,98.38 z" fill-opacity="0" stroke="#000000" stroke-width="0.25"/>
    </g>
    <g>
      <path d="M229.007,98.38 L229.007,50.615 L240.522,50.615 L240.522,98.38 L229.007,98.38 z" fill="#000000"/>
      <path d="M229.007,98.38 L229.007,50.615 L240.522,50.615 L240.522,98.38 L229.007,98.38 z" fill-opacity="0" stroke="#000000" stroke-width="0.25"/>
    </g>
    <g>
      <path d="M250.961,98.38 L250.961,50.615 L318.131,50.615 L318.131,98.38 L250.961,98.38 z" fill="#000000"/>
      <path d="M250.961,98.38 L250.961,50.615 L318.131,50.615 L318.131,98.38 L250.961,98.38 z" fill-opacity="0" stroke="#000000" stroke-width="0.25"/>
    </g>
    <g>
      <path d="M328.57,98.38 L328.57,50.615 L340.085,50.615 L340.085,98.38 L328.57,98.38 z" fill="#000000"/>
      <path d="M328.57,98.38 L328.57,50.615 L340.085,50.615 L340.085,98.38 L328.57,98.38 z" fill-opacity="0" stroke="#000000" stroke-width="0.25"/>
    </g>
    <g>
      <path d="M350.523,98.38 L350.523,50.615 L362.038,50.615 L362.038,98.38 L350.523,98.38 z" fill="#000000"/>
      <path d="M350.523,98.38 L350.523,50.615 L362.038,50.615 L362.038,98.38 L350.523,98.38 z" fill-opacity="0" stroke="#000000" stroke-width="0.25"/>
    </g>
    <g>
      <path d="M372.477,98.38 L372.477,50.615 L439.647,50.615 L439.647,98.38 L372.477,98.38 z" fill="#000000"/>
      <path d="M372.477,98.38 L372.477,50.615 L439.647,50.615 L439.647,98.38 L372.477,98.38 z" fill-opacity="0" stroke="#000000" stroke-width="0.25"/>
    </g>
    <g>
      <path d="M684.603,50.615 L684.603,98.38 L617.433,98.38 L617.433,50.615 L684.603,50.615 z" fill="#000000"/>
      <path d="M684.603,50.615 L684.603,98.38 L617.433,98.38 L617.433,50.615 L684.603,50.615 z" fill-opacity="0" stroke="#000000" stroke-width="0.25"/>
    </g>
    <g>
      <path d="M606.994,50.615 L606.994,98.38 L595.479,98.38 L595.479,50.615 L606.994,50.615 z" fill="#000000"/>
      <path d="M606.994,50.615 L606.994,98.38 L595.479,98.38 L595.479,50.615 L606.994,50.615 z" fill-opacity="0" stroke="#000000" stroke-width="0.25"/>
    </g>
    <g>
      <path d="M585.041,50.615 L585.041,98.38 L573.526,98.38 L573.526,50.615 L585.041,50.615 z" fill="#000000"/>
      <path d="M585.041,50.615 L585.041,98.38 L573.526,98.38 L573.526,50.615 L585.041,50.615 z" fill-opacity="0" stroke="#000000" stroke-width="0.25"/>
    </g>
    <g>
      <path d="M563.087,50.615 L563.087,98.38 L495.917,98.38 L495.917,50.615 L563.087,50.615 z" fill="#000000"/>
      <path d="M563.087,50.615 L563.087,98.38 L495.917,98.38 L495.917,50.615 L563.087,50.615 z" fill-opacity="0" stroke="#000000" stroke-width="0.25"/>
    </g>
    <g>
      <path d="M485.478,50.615 L485.478,98.38 L473.963,98.38 L473.963,50.615 L485.478,50.615 z" fill="#000000"/>
      <path d="M485.478,50.615 L485.478,98.38 L473.963,98.38 L473.963,50.615 L485.478,50.615 z" fill-opacity="0" stroke="#000000" stroke-width="0.25"/>
    </g>
    <g>
      <path d="M463.525,50.615 L463.525,98.38 L452.01,98.38 L452.01,50.615 L463.525,50.615 z" fill="#000000"/>
      <path d="M463.525,50.615 L463.525,98.38 L452.01,98.38 L452.01,50.615 L463.525,50.615 z" fill-opacity="0" stroke="#000000" stroke-width="0.25"/>
    </g>
    <g>
      <path d="M441.571,50.615 L441.571,98.38 L374.401,98.38 L374.401,50.615 L441.571,50.615 z" fill="#000000"/>
      <path d="M441.571,50.615 L441.571,98.38 L374.401,98.38 L374.401,50.615 L441.571,50.615 z" fill-opacity="0" stroke="#000000" stroke-width="0.25"/>
    </g>
    <g>
      <path d="M133.921,1070.5 L133.921,1022.735 L201.091,1022.735 L201.091,1070.5 L133.921,1070.5 z" fill="#000000"/>
      <path d="M133.921,1070.5 L133.921,1022.735 L201.091,1022.735 L201.091,1070.5 L133.921,1070.5 z" fill-opacity="0" stroke="#000000" stroke-width="0.25"/>
    </g>
    <g>
      <path d="M211.53,1070.5 L211.53,1022.735 L223.044,1022.735 L223.044,1070.5 L211.53,1070.5 z" fill="#000000"/>
      <path d="M211.53,1070.5 L211.53,1022.735 L223.044,1022.735 L223.044,1070.5 L211.53,1070.5 z" fill-opacity="0" stroke="#000000" stroke-width="0.25"/>
    </g>
    <g>
      <path d="M233.483,1070.5 L233.483,1022.735 L244.998,1022.735 L244.998,1070.5 L233.483,1070.5 z" fill="#000000"/>
      <path d="M233.483,1070.5 L233.483,1022.735 L244.998,1022.735 L244.998,1070.5 L233.483,1070.5 z" fill-opacity="0" stroke="#000000" stroke-width="0.25"/>
    </g>
    <g>
      <path d="M255.437,1070.5 L255.437,1022.735 L322.607,1022.735 L322.607,1070.5 L255.437,1070.5 z" fill="#000000"/>
      <path d="M255.437,1070.5 L255.437,1022.735 L322.607,1022.735 L322.607,1070.5 L255.437,1070.5 z" fill-opacity="0" stroke="#000000" stroke-width="0.25"/>
    </g>
    <g>
      <path d="M333.046,1070.5 L333.046,1022.735 L344.561,1022.735 L344.561,1070.5 L333.046,1070.5 z" fill="#000000"/>
      <path d="M333.046,1070.5 L333.046,1022.735 L344.561,1022.735 L344.561,1070.5 L333.046,1070.5 z" fill-opacity="0" stroke="#000000" stroke-width="0.25"/>
    </g>
    <g>
      <path d="M354.999,1070.5 L354.999,1022.735 L366.514,1022.735 L366.514,1070.5 L354.999,1070.5 z" fill="#000000"/>
      <path d="M354.999,1070.5 L354.999,1022.735 L366.514,1022.735 L366.514,1070.5 L354.999,1070.5 z" fill-opacity="0" stroke="#000000" stroke-width="0.25"/>
    </g>
    <g>
      <path d="M376.953,1070.5 L376.953,1022.735 L444.123,1022.735 L444.123,1070.5 L376.953,1070.5 z" fill="#000000"/>
      <path d="M376.953,1070.5 L376.953,1022.735 L444.123,1022.735 L444.123,1070.5 L376.953,1070.5 z" fill-opacity="0" stroke="#000000" stroke-width="0.25"/>
    </g>
    <g>
      <path d="M689.079,1022.735 L689.079,1070.5 L621.909,1070.5 L621.909,1022.735 L689.079,1022.735 z" fill="#000000"/>
      <path d="M689.079,1022.735 L689.079,1070.5 L621.909,1070.5 L621.909,1022.735 L689.079,1022.735 z" fill-opacity="0" stroke="#000000" stroke-width="0.25"/>
    </g>
    <g>
      <path d="M611.47,1022.735 L611.47,1070.5 L599.955,1070.5 L599.955,1022.735 L611.47,1022.735 z" fill="#000000"/>
      <path d="M611.47,1022.735 L611.47,1070.5 L599.955,1070.5 L599.955,1022.735 L611.47,1022.735 z" fill-opacity="0" stroke="#000000" stroke-width="0.25"/>
    </g>
    <g>
      <path d="M589.517,1022.735 L589.517,1070.5 L578.002,1070.5 L578.002,1022.735 L589.517,1022.735 z" fill="#000000"/>
      <path d="M589.517,1022.735 L589.517,1070.5 L578.002,1070.5 L578.002,1022.735 L589.517,1022.735 z" fill-opacity="0" stroke="#000000" stroke-width="0.25"/>
    </g>
    <g>
      <path d="M567.563,1022.735 L567.563,1070.5 L500.393,1070.5 L500.393,1022.735 L567.563,1022.735 z" fill="#000000"/>
      <path d="M567.563,1022.735 L567.563,1070.5 L500.393,1070.5 L500.393,1022.735 L567.563,1022.735 z" fill-opacity="0" stroke="#000000" stroke-width="0.25"/>
    </g>
    <g>
      <path d="M489.954,1022.735 L489.954,1070.5 L478.439,1070.5 L478.439,1022.735 L489.954,1022.735 z" fill="#000000"/>
      <path d="M489.954,1022.735 L489.954,1070.5 L478.439,1070.5 L478.439,1022.735 L489.954,1022.735 z" fill-opacity="0" stroke="#000000" stroke-width="0.25"/>
    </g>
    <g>
      <path d="M468.001,1022.735 L468.001,1070.5 L456.486,1070.5 L456.486,1022.735 L468.001,1022.735 z" fill="#000000"/>
      <path d="M468.001,1022.735 L468.001,1070.5 L456.486,1070.5 L456.486,1022.735 L468.001,1022.735 z" fill-opacity="0" stroke="#000000" stroke-width="0.25"/>
    </g>
    <g>
      <path d="M446.047,1022.735 L446.047,1070.5 L378.877,1070.5 L378.877,1022.735 L446.047,1022.735 z" fill="#000000"/>
      <path d="M446.047,1022.735 L446.047,1070.5 L378.877,1070.5 L378.877,1022.735 L446.047,1022.735 z" fill-opacity="0" stroke="#000000" stroke-width="0.25"/>
    </g>
  </g>
</svg>
