<?xml version="1.0" encoding="UTF-8"?>
<!DOCTYPE svg PUBLIC "-//W3C//DTD SVG 1.1//EN" "http://www.w3.org/Graphics/SVG/1.1/DTD/svg11.dtd">
<svg version="1.1" xmlns="http://www.w3.org/2000/svg" xmlns:xlink="http://www.w3.org/1999/xlink" x="0" y="0" width="354.674" height="475.667" viewBox="0, 0, 354.674, 475.667">
  <g id="Layer_1" transform="translate(-0, 0)">
    <g>
      <path d="M260.902,66.306 C245.862,61.556 230.292,60.766 214.642,60.076 C217.802,61.266 220.972,62.456 224.132,63.666 C238.442,69.126 250.662,77.816 261.802,88.136 C278.032,103.176 290.662,120.686 298.262,141.626 C302.172,152.406 303.932,163.556 304.672,174.966 C305.212,183.356 305.042,191.696 303.872,199.966 C302.402,210.336 299.572,220.386 295.562,230.076 C293.892,234.096 292.292,238.146 290.172,242.106 C290.172,240.056 289.902,237.966 290.212,235.966 C291.942,224.746 293.792,213.546 295.642,202.346 C297.372,191.866 298.242,181.336 298.082,170.716 C298.082,170.476 297.952,170.226 297.842,169.816 C293.082,171.306 289.362,174.376 285.732,177.256 C281.002,171.066 279.832,163.916 279.202,156.526 C277.292,134.216 269.592,114.326 253.582,98.286 C241.212,85.896 226.162,77.986 209.182,73.896 C202.872,72.376 196.392,71.566 189.472,70.346 C190.102,73.796 190.612,76.566 191.182,79.726 C189.672,78.926 188.372,78.286 187.132,77.576 C180.232,73.616 173.012,72.026 164.952,73.106 C152.982,74.716 141.322,77.166 130.422,82.476 C118.532,88.266 108.562,96.456 100.532,107.016 C97.322,111.236 96.422,116.276 95.282,121.216 C92.722,132.316 88.452,142.796 84.262,153.326 C82.332,158.176 78.212,160.136 73.762,162.416 C72.292,154.426 70.862,146.546 65.512,139.256 C64.192,145.356 62.732,150.816 61.852,156.376 C60.332,166.046 59.422,175.796 60.002,185.616 C60.922,201.046 64.682,215.796 70.542,230.046 C75.942,243.176 83.442,254.966 92.632,265.796 C95.742,269.456 99.592,269.456 103.552,269.686 C117.852,270.536 131.812,268.166 145.572,264.626 C153.772,262.516 161.842,259.856 169.912,257.246 C171.382,256.776 173.522,255.486 173.652,254.376 C173.882,252.356 171.522,251.846 169.832,251.306 C165.242,249.846 160.622,248.466 156.012,247.036 C155.362,246.836 154.732,246.586 153.562,246.176 C157.712,246.176 161.252,246.076 164.792,246.196 C172.052,246.456 179.372,247.606 186.522,246.926 C191.962,246.406 197.332,243.966 202.462,241.746 C212.002,237.626 220.352,231.556 228.212,224.786 C234.922,219.006 237.762,211.546 238.172,202.956 C238.282,200.716 238.362,198.456 238.172,196.226 C237.862,192.576 236.452,191.256 232.772,191.416 C218.502,192.036 204.782,195.246 191.622,200.756 C184.322,203.816 177.442,207.636 171.232,212.596 C171.062,212.736 170.802,212.776 170.062,213.076 C171.302,210.996 172.302,209.356 173.272,207.696 C175.872,203.236 177.812,198.576 177.802,193.296 C177.802,191.886 177.532,190.716 175.722,190.926 C170.032,191.606 164.222,191.826 158.682,193.136 C152.892,194.506 147.312,196.826 141.742,198.986 C139.682,199.786 137.522,200.746 136.552,203.266 C136.252,204.036 134.462,204.226 133.922,204.446 C132.952,206.156 132.112,207.396 131.512,208.746 C130.152,211.826 128.552,214.866 127.722,218.096 C126.762,221.826 125.542,225.186 122.782,228.006 C119.682,231.176 119.832,236.976 122.862,241.456 C123.432,242.306 124.072,243.116 124.672,243.946 C124.492,244.116 124.322,244.286 124.142,244.466 C122.202,242.586 120.062,240.856 118.362,238.786 C116.442,236.446 114.832,233.836 113.232,231.246 C112.852,230.626 112.862,229.576 113.052,228.806 C113.712,226.126 114.692,223.516 115.242,220.806 C115.812,217.996 116.022,215.106 116.452,211.716 C118.022,212.546 119.882,213.536 122.502,214.916 C122.072,212.896 122.182,210.956 121.272,209.966 C120.542,209.176 118.422,209.106 117.142,209.476 C113.322,210.586 109.662,212.136 108.312,216.386 C108.052,216.426 107.832,216.526 107.742,216.456 C104.012,213.656 102.622,214.026 100.862,218.406 C100.102,220.286 99.542,222.256 98.682,224.796 C98.112,222.846 97.842,221.436 97.272,220.176 C96.872,219.296 96.062,217.986 95.422,217.976 C94.262,217.956 92.772,218.466 91.992,219.296 C90.762,220.626 90.002,222.386 88.922,224.166 C86.382,219.886 87.972,215.976 89.092,211.656 C90.302,212.196 91.352,212.826 92.492,213.136 C93.452,213.396 94.512,213.286 95.522,213.346 C95.382,212.246 95.372,211.106 95.052,210.066 C94.862,209.446 94.192,208.986 93.982,207.896 C96.722,208.726 99.452,209.556 102.872,210.586 C102.492,208.986 102.232,207.906 101.872,206.376 C103.492,206.906 105.062,207.516 106.682,207.916 C107.812,208.196 109.472,208.746 110.092,208.216 C111.372,207.136 110.472,205.606 109.712,204.356 C109.432,203.896 109.112,203.466 108.742,202.926 C112.962,200.086 116.772,202.396 121.202,204.306 C120.932,202.126 120.742,200.606 120.462,198.426 C122.302,199.306 123.852,200.056 126.162,201.156 C125.672,198.796 125.322,197.076 124.832,194.736 C127.252,195.656 129.512,196.506 132.032,197.466 C133.942,195.996 135.282,193.846 135.682,191.196 C135.902,189.736 136.582,189.446 137.952,189.206 C141.902,188.496 145.832,187.626 149.682,186.506 C150.902,186.146 152.182,184.966 152.822,183.826 C154.592,180.626 155.832,177.136 157.672,173.986 C159.092,171.576 160.742,169.026 162.922,167.396 C168.422,163.306 172.872,158.356 176.622,152.716 C181.302,145.686 186.202,138.876 192.232,132.876 C198.802,126.356 206.702,123.066 215.732,122.396 C228.072,121.496 240.282,122.566 252.292,125.626 C253.462,125.926 254.592,126.386 255.642,127.126 C251.432,127.126 247.222,127.016 243.022,127.146 C235.482,127.386 228.712,130.056 222.402,134.046 C218.082,136.776 213.812,139.676 208.572,140.316 C206.262,140.596 203.912,140.626 201.582,140.626 C199.792,140.626 198.592,141.336 198.302,143.106 C198.062,144.636 199.702,146.066 201.732,146.086 C206.412,146.136 211.082,146.106 215.762,146.086 C228.982,146.036 242.172,146.556 255.272,148.326 C261.112,149.116 266.882,150.386 272.682,151.436 C272.682,151.656 272.702,151.886 272.712,152.106 C271.142,152.256 269.572,152.346 268.012,152.556 C261.362,153.436 254.722,154.306 248.082,155.286 C246.882,155.466 245.692,156.036 244.612,156.636 C242.392,157.876 242.182,160.156 244.312,161.566 C246.152,162.786 248.252,163.646 250.292,164.536 C264.472,170.776 276.112,179.916 283.832,193.606 C284.252,194.356 284.632,195.136 284.852,195.576 C280.932,193.606 276.912,191.396 272.732,189.556 C270.822,188.716 268.602,188.546 266.502,188.166 C264.702,187.846 263.162,188.576 262.522,190.226 C261.822,192.036 263.442,192.936 264.622,193.876 C268.002,196.536 271.562,198.976 274.752,201.836 C280.802,207.266 283.092,214.676 284.462,222.326 C286.372,233.006 286.332,243.786 284.482,254.476 C284.022,257.126 282.782,259.736 281.462,262.116 C271.942,279.266 259.162,293.736 244.542,306.676 C244.182,306.996 243.732,307.206 242.912,307.086 C244.442,305.076 245.972,303.066 247.502,301.056 C253.912,292.646 260.312,284.246 264.852,274.616 C269.212,265.366 271.822,255.656 272.412,245.466 C272.692,240.696 271.792,235.996 269.662,231.646 C269.152,230.606 268.512,229.616 267.772,228.726 C265.632,226.136 263.242,226.476 262.172,229.646 C260.722,233.956 259.582,238.366 258.192,242.696 C251.382,264.006 238.962,281.126 220.162,293.466 C217.562,295.176 215.022,296.986 212.302,298.856 C216.202,299.686 229.582,296.456 234.872,293.826 C241.802,290.376 248.482,286.436 254.702,283.016 C253.932,284.656 250.812,287.876 246.142,291.196 C235.932,298.446 224.442,302.776 212.392,305.816 C198.652,309.276 184.652,309.786 170.652,308.906 C145.512,307.326 122.792,298.896 103.032,283.086 C88.312,271.306 76.852,256.866 68.602,239.886 C68.232,239.116 67.782,238.386 66.912,237.796 C70.412,250.276 73.912,262.756 77.422,275.236 C77.262,275.296 77.092,275.366 76.932,275.426 C75.732,273.156 74.522,270.886 73.332,268.606 C67.132,256.726 60.552,245.016 56.102,232.316 C52.912,223.236 50.962,213.866 50.372,204.266 C49.942,197.096 49.552,189.896 49.772,182.736 C50.222,168.206 53.692,154.276 59.152,140.826 C64.992,126.456 73.452,113.776 84.052,102.496 C94.162,91.726 104.722,81.486 117.932,74.466 C121.692,72.466 125.512,70.576 129.302,68.626 C129.202,68.406 129.112,68.186 129.012,67.966 C123.992,70.176 118.872,72.196 113.972,74.646 C102.442,80.436 92.112,88.076 82.442,96.516 C73.852,104.006 65.782,112.086 57.132,120.226 C60.152,115.866 62.762,111.646 65.822,107.786 C86.812,81.246 114.002,64.356 146.962,57.246 C167.302,52.856 188.062,51.956 208.872,53.146 C225.252,54.076 241.162,57.146 256.332,63.546 C257.892,64.206 259.392,64.976 260.922,65.696 C260.892,65.886 260.862,66.076 260.832,66.266 z M202.752,286.486 C201.632,281.926 200.702,277.426 199.402,273.036 C198.572,270.236 196.472,268.786 193.392,268.516 C184.802,267.756 176.302,268.546 168.022,270.606 C153.292,274.266 138.672,278.376 124.022,282.346 C122.712,282.706 121.162,282.946 121.002,284.896 C120.842,286.836 121.532,288.296 123.242,289.086 C126.872,290.786 130.442,292.776 134.252,293.926 C150.472,298.796 167.042,299.446 183.772,297.266 C199.542,295.216 212.222,287.806 221.442,274.836 C230.742,261.746 237.242,247.286 241.422,231.786 C241.582,231.176 241.442,230.486 241.442,229.396 C239.942,230.346 238.592,230.926 237.602,231.886 C228.752,240.436 219.842,248.916 211.222,257.696 C206.362,262.646 203.532,268.666 204.292,275.916 C204.402,276.976 204.362,278.086 204.192,279.146 C203.782,281.646 203.242,284.116 202.772,286.476 z M220.412,189.176 C220.412,189.036 220.432,188.896 220.432,188.766 C224.292,188.766 228.162,188.856 232.022,188.736 C234.932,188.646 235.802,186.866 234.272,184.476 C230.712,178.916 226.362,174.046 221.212,169.896 C219.522,168.526 217.882,168.336 216.082,169.646 C214.202,171.016 212.322,172.406 210.372,173.676 C205.942,176.586 203.352,182.186 197.192,182.646 C196.602,182.686 195.632,184.146 195.692,184.866 C195.772,185.726 196.712,186.556 197.422,187.266 C197.752,187.586 198.412,187.666 198.932,187.696 C206.092,188.206 213.252,188.696 220.402,189.186 z M230.992,158.736 C221.532,159.826 211.412,160.916 201.312,162.176 C197.072,162.706 192.862,163.516 188.672,164.386 C187.802,164.566 187.112,165.556 186.342,166.176 C187.172,166.846 187.942,167.976 188.862,168.126 C195.572,169.196 202.312,170.586 208.872,167.276 C210.122,166.646 211.612,166.496 212.972,166.076 C219.452,164.076 225.752,161.676 231.002,158.726 z" fill="#000000"/>
      <path d="M82.402,229.096 C77.592,223.856 72.662,218.786 70.522,211.936 C69.702,209.296 69.712,206.246 69.972,203.436 C70.602,196.686 70.902,190.026 68.312,183.556 C68.162,183.176 68.252,182.696 68.182,181.536 C70.082,183.186 71.562,184.406 72.972,185.706 C77.542,189.906 78.582,189.806 82.112,184.716 C82.162,184.646 82.212,184.566 82.252,184.486 C85.932,177.336 91.802,172.886 99.292,170.216 C101.862,169.296 104.152,167.586 106.592,166.276 C110.092,164.386 111.102,161.186 111.382,157.526 C111.702,153.326 111.842,149.076 112.602,144.946 C112.962,142.996 114.322,141.016 115.722,139.506 C118.462,136.546 121.552,133.916 124.772,131.296 C123.652,133.906 122.522,136.506 121.402,139.116 C121.602,139.376 121.812,139.636 122.012,139.896 C123.632,139.386 125.432,139.166 126.832,138.286 C129.632,136.536 132.512,134.716 134.822,132.396 C141.542,125.656 148.172,118.796 154.472,111.666 C156.512,109.346 157.682,106.116 158.782,103.136 C160.602,98.216 163.522,94.266 167.672,91.086 C166.602,94.406 165.432,97.546 164.612,100.776 C164.062,102.926 163.842,105.206 163.752,107.436 C163.612,110.846 162.332,113.686 160.032,116.116 C157.332,118.986 154.592,121.826 151.772,124.786 C153.152,127.296 154.442,129.616 155.542,131.616 C159.342,126.276 163.152,120.906 166.982,115.546 C171.132,109.726 176.782,105.996 183.762,104.846 C193.052,103.316 196.342,98.896 197.712,87.646 C197.772,87.126 197.772,86.596 198.032,86.016 C200.072,89.186 201.202,92.626 200.752,96.446 C199.842,104.056 195.912,108.906 188.132,110.416 C183.132,111.386 178.632,113.576 174.842,117.026 C173.852,117.926 172.192,118.886 173.752,120.956 C180.432,116.316 188.252,115.706 195.872,114.286 C203.832,112.806 210.722,104.786 211.812,96.706 C213.022,87.756 209.112,81.716 201.772,77.326 C200.652,76.656 199.552,75.926 198.062,74.976 C211.802,76.876 220.802,86.736 220.262,99.736 C219.882,109.056 216.312,116.886 206.602,120.216 C194.682,124.306 186.862,133.196 179.772,142.956 C176.302,147.736 173.132,152.746 169.452,157.356 C167.362,159.976 164.672,162.186 161.982,164.236 C158.842,166.626 156.112,169.266 154.632,172.956 C152.972,177.106 150.202,179.306 145.702,180.456 C133.532,183.556 122.232,189.046 110.862,194.296 C102.992,197.926 95.122,201.556 87.232,205.116 C81.232,207.816 78.982,211.406 79.862,218.086 C80.332,221.666 81.462,225.156 82.392,229.076 z M119.832,173.066 C124.882,173.006 129.642,172.836 133.872,170.346 C136.492,168.796 139.172,166.886 139.382,163.526 C139.532,161.006 138.892,158.436 138.522,155.236 C136.672,156.956 135.392,158.336 133.922,159.456 C132.102,160.826 130.262,162.626 128.172,163.076 C122.682,164.276 121.322,168.396 119.832,173.066 z M85.712,192.636 C88.472,191.316 91.372,189.936 94.542,188.426 L94.542,183.546 C90.702,183.006 86.112,187.946 85.712,192.636 z M134.112,146.466 C125.382,149.576 118.412,156.676 118.682,161.886 C123.762,156.806 129.172,151.396 134.112,146.466 z M104.022,179.926 C106.542,176.396 108.762,173.286 110.982,170.186 C110.792,170.056 110.612,169.926 110.422,169.796 C107.132,172.166 103.152,174.056 104.012,179.926 z M156.782,146.276 C153.022,148.846 149.812,151.036 146.592,153.226 C150.682,152.276 154.722,151.266 156.782,146.276 z" fill="#000000"/>
    </g>
    <text transform="matrix(1, 0, 0, 1, 177.337, 26.167)">
      <tspan x="-59.044" y="11.833" font-family="Helvetica" font-size="36" fill="#000000">•</tspan>
      <tspan x="-46.44" y="11.833" font-family="MoriaCitadel" font-size="36" fill="#000000">Zen</tspan>
      <tspan x="46.44" y="11.833" font-family="Helvetica" font-size="36" fill="#000000">•</tspan>
      <tspan x="59.044" y="11.833" font-family="MoriaCitadel" font-size="36" fill="#000000"> </tspan>
    </text>
    <text transform="matrix(1, 0, 0, 1, 177.337, 333.833)">
      <tspan x="-95.76" y="14.5" font-family="MoriaCitadel" font-size="36" fill="#000000">Garden</tspan>
    </text>
    <text transform="matrix(1, 0, 0, 1, 177.337, 430.167)">
      <tspan x="-84.876" y="-20.5" font-family="MoriaCitadel" font-size="24" fill="#000000">WDD-331 D</tspan>
      <tspan x="-145.116" y="9.5" font-family="MoriaCitadel" font-size="24" fill="#000000">Thursday Night </tspan>
      <tspan x="-46.344" y="39.5" font-family="MoriaCitadel" font-size="24" fill="#000000">team</tspan>
    </text>
    <g>
      <path d="M34.208,371.5 L321.465,371.5" fill-opacity="0" stroke="#000000" stroke-width="1"/>
      <path d="M29.087,373.621 C27.915,372.45 27.915,370.55 29.087,369.379 C30.259,368.207 32.158,368.207 33.33,369.379 C34.501,370.55 34.501,372.45 33.33,373.621 C32.158,374.793 30.259,374.793 29.087,373.621" fill="#000000" fill-opacity="1" stroke="#000000" stroke-width="1" stroke-opacity="1"/>
      <path d="M326.587,369.379 C327.758,370.55 327.758,372.45 326.587,373.621 C325.415,374.793 323.516,374.793 322.344,373.621 C321.172,372.45 321.172,370.55 322.344,369.379 C323.516,368.207 325.415,368.207 326.587,369.379" fill="#000000" fill-opacity="1" stroke="#000000" stroke-width="1" stroke-opacity="1"/>
    </g>
  </g>
</svg>
